HIERARCHY
ROOT Hips
{
	OFFSET 0.000000 0.000000 0.000000
	CHANNELS 6 Xposition Yposition Zposition Zrotation Yrotation Xrotation 
	JOINT LHipJoint
	{
		OFFSET 0.000000 0.000000 0.000000
		CHANNELS 3 Zrotation Yrotation Xrotation
		JOINT LeftUpLeg
		{
			OFFSET 1.363060 -1.794630 0.839290
			CHANNELS 3 Zrotation Yrotation Xrotation
			JOINT LeftLeg
			{
				OFFSET 2.448110 -6.726130 0.000000
				CHANNELS 3 Zrotation Yrotation Xrotation
				JOINT LeftFoot
				{
					OFFSET 2.562200 -7.039590 0.000000
					CHANNELS 3 Zrotation Yrotation Xrotation
					JOINT LeftToeBase
					{
						OFFSET 0.157640 -0.433110 2.322550
						CHANNELS 3 Zrotation Yrotation Xrotation
						End Site
						{
							OFFSET 0.000000 0.000000 0.000000
						}
					}
				}
			}
		}
	}
	JOINT RHipJoint
	{
		OFFSET 0.000000 0.000000 0.000000
		CHANNELS 3 Zrotation Yrotation Xrotation
		JOINT RightUpLeg
		{
			OFFSET -1.305520 -1.794630 0.839290
			CHANNELS 3 Zrotation Yrotation Xrotation
			JOINT RightLeg
			{
				OFFSET -2.542530 -6.985550 0.000000
				CHANNELS 3 Zrotation Yrotation Xrotation
				JOINT RightFoot
				{
					OFFSET -2.568260 -7.056230 0.000000
					CHANNELS 3 Zrotation Yrotation Xrotation
					JOINT RightToeBase
					{
						OFFSET -0.164730 -0.452590 2.363150
						CHANNELS 3 Zrotation Yrotation Xrotation
						End Site
						{
							OFFSET 0.000000 0.000000 0.000000
						}
					}
				}
			}
		}
	}
	JOINT LowerBack
	{
		OFFSET 0.000000 0.000000 0.000000
		CHANNELS 3 Zrotation Yrotation Xrotation
		JOINT Spine
		{
			OFFSET 0.028270 2.035590 -0.193380
			CHANNELS 3 Zrotation Yrotation Xrotation
			JOINT Spine1
			{
				OFFSET 0.056720 2.048850 -0.042750
				CHANNELS 3 Zrotation Yrotation Xrotation
				JOINT Neck
				{
					OFFSET 0.000000 0.000000 0.000000
					CHANNELS 3 Zrotation Yrotation Xrotation
					JOINT Neck1
					{
						OFFSET -0.054170 1.746240 0.172020
						CHANNELS 3 Zrotation Yrotation Xrotation
						JOINT Head
						{
							OFFSET 0.104070 1.761360 -0.123970
							CHANNELS 3 Zrotation Yrotation Xrotation
							End Site
							{
								OFFSET 0.000000 0.000000 0.000000
							}
						}
					}
				}
				JOINT LeftShoulder
				{
					OFFSET 0.000000 0.000000 0.000000
					CHANNELS 3 Zrotation Yrotation Xrotation
					JOINT LeftArm
					{
						OFFSET 3.362410 1.200890 -0.311210
						CHANNELS 3 Zrotation Yrotation Xrotation
						JOINT LeftForeArm
						{
							OFFSET 4.983000 -0.000000 -0.000000
							CHANNELS 3 Zrotation Yrotation Xrotation
							JOINT LeftHand
							{
								OFFSET 3.483560 -0.000000 -0.000000
								CHANNELS 3 Zrotation Yrotation Xrotation
								JOINT LeftFingerBase
								{
									OFFSET 0.000000 0.000000 0.000000
									CHANNELS 3 Zrotation Yrotation Xrotation
									JOINT LeftHandIndex1
									{
										OFFSET 0.715260 -0.000000 -0.000000
										CHANNELS 3 Zrotation Yrotation Xrotation
										End Site
										{
											OFFSET 0.000000 0.000000 0.000000
										}
									}
								}
								JOINT LThumb
								{
									OFFSET 0.000000 0.000000 0.000000
									CHANNELS 3 Zrotation Yrotation Xrotation
									End Site
									{
										OFFSET 0.000000 0.000000 0.000000
									}
								}
							}
						}
					}
				}
				JOINT RightShoulder
				{
					OFFSET 0.000000 0.000000 0.000000
					CHANNELS 3 Zrotation Yrotation Xrotation
					JOINT RightArm
					{
						OFFSET -3.136600 1.374050 -0.404650
						CHANNELS 3 Zrotation Yrotation Xrotation
						JOINT RightForeArm
						{
							OFFSET -5.241900 -0.000000 -0.000000
							CHANNELS 3 Zrotation Yrotation Xrotation
							JOINT RightHand
							{
								OFFSET -3.444170 -0.000000 -0.000000
								CHANNELS 3 Zrotation Yrotation Xrotation
								JOINT RightFingerBase
								{
									OFFSET 0.000000 0.000000 0.000000
									CHANNELS 3 Zrotation Yrotation Xrotation
									JOINT RightHandIndex1
									{
										OFFSET -0.622530 -0.000000 -0.000000
										CHANNELS 3 Zrotation Yrotation Xrotation
										End Site
										{
											OFFSET 0.000000 0.000000 0.000000
										}
									}
								}
								JOINT RThumb
								{
									OFFSET 0.000000 0.000000 0.000000
									CHANNELS 3 Zrotation Yrotation Xrotation
									End Site
									{
										OFFSET 0.000000 0.000000 0.000000
									}
								}
							}
						}
					}
				}
			}
		}
	}
}
MOTION
Frames: 9
Frame Time: 0.008333
-9.385585 16.438537 -2.584441 3.913003 77.162160 17.816435 -10.146863 -0.190550 3.825856 -0.396960 -0.659625 -43.800102 -1.498142 0.557553 17.276060 0.774112 4.173693 6.221115 1.315300 0.000000 -35.555900 9.938175 -2.506203 -0.606194 6.477100 -0.218776 -7.426266 -0.261114 -2.843194 47.671793 -0.803115 -3.115857 -2.831572 -0.331200 -0.000000 -59.435500 0.492418 0.277267 -3.351140 -0.774928 0.054388 -3.752325 -6.767622 -0.065490 -0.085667 9.710840 -3.623505 -5.989060 -3.933924 -0.327284 0.462263 0.000000 0.000000 0.000000 -5.820847 10.037205 2.199970 -65.215259 23.076556 5.774583 -4.001415 -12.150997 -0.005367 1.142606 4.385575 0.048301 -0.093608 -0.110103 -0.000000 0.000000 0.000000 0.000000 0.000000 0.000000 0.000000 16.576992 1.700905 0.272189 64.195838 21.167062 8.611252 1.967313 47.226972 0.000646 -3.115342 8.409856 -0.241250 0.083161 -0.260301 -0.000000 0.000000 0.000000 0.000000 0.000000 0.000000 0.000000 
-9.166855 16.401794 -2.558329 7.051207 76.886598 20.749435 -10.209268 -0.145846 3.587428 -1.540581 -0.098847 -44.300176 -1.465042 0.793336 19.827797 0.871512 4.789795 7.090288 1.516400 0.000000 -34.183100 10.122703 -2.452795 -0.614445 5.959335 -0.567815 -9.062882 -0.621919 -3.019951 51.466091 -1.242236 -5.921721 -3.079144 -0.549800 0.000000 -51.257700 -0.208598 0.042469 -3.259256 -0.900837 -0.123818 -3.740616 -6.813970 -0.250495 -0.096339 9.890627 -3.692254 -6.036684 -3.991758 -0.330890 0.446250 0.000000 0.000000 0.000000 -5.629549 9.764609 2.213959 -64.997569 22.487807 6.329935 -4.004833 -12.046562 -0.005163 1.252080 4.374190 0.052510 -0.093524 -0.107797 -0.000000 0.000000 0.000000 0.000000 0.000000 0.000000 0.000000 17.048630 1.483370 0.297456 64.803402 20.281337 8.058601 2.013751 45.946015 0.000033 -3.506496 8.515226 -0.274358 0.086960 -0.252998 -0.000000 0.000000 0.000000 0.000000 0.000000 0.000000 0.000000 
-8.956901 16.370555 -2.529983 9.892540 76.564202 23.410365 -10.237275 -0.115247 3.327751 -2.658669 0.489982 -44.711391 -1.447897 0.996700 22.222641 0.956424 5.329400 7.525301 1.676000 0.000000 -33.175600 10.318296 -2.377449 -0.613654 5.523406 -0.819704 -10.784029 -0.925437 -3.190237 55.081777 -1.675578 -8.603625 -3.713451 -0.698400 -0.000001 -42.404200 -0.862914 -0.189669 -3.131274 -1.017421 -0.302095 -3.720769 -6.853742 -0.434621 -0.106215 10.036441 -3.755735 -6.090059 -4.047942 -0.334209 0.427598 0.000000 0.000000 0.000000 -5.449589 9.467991 2.235761 -64.787223 21.702477 6.830958 -3.999773 -11.896349 -0.004681 1.484281 4.336351 0.060926 -0.092903 -0.104249 -0.000000 0.000000 0.000000 0.000000 0.000000 0.000000 0.000000 17.470834 1.262897 0.323342 65.486354 19.387952 7.401179 2.053580 44.549248 -0.000871 -4.006192 8.633090 -0.316974 0.091093 -0.245722 -0.000000 0.000000 0.000000 0.000000 0.000000 0.000000 0.000000 
-8.755564 16.345924 -2.500372 12.296469 76.166244 25.657586 -10.233188 -0.089959 3.049708 -3.712267 1.108123 -45.009677 -1.448897 1.171410 24.441485 1.026735 5.780741 7.478292 1.775200 0.000000 -32.641100 10.519293 -2.280840 -0.601240 5.183790 -0.948213 -12.565252 -1.177471 -3.355326 58.442740 -2.076206 -11.016046 -4.660890 -0.731000 -0.000000 -33.949600 -1.443812 -0.406031 -2.968754 -1.120707 -0.469605 -3.692903 -6.887749 -0.606763 -0.113181 10.147064 -3.810066 -6.147315 -4.102618 -0.337261 0.406858 0.000000 0.000000 0.000000 -5.291729 9.165679 2.261243 -64.585626 20.729362 7.257695 -3.984377 -11.720692 -0.003906 1.854356 4.265042 0.074048 -0.091595 -0.099577 -0.000000 0.000000 0.000000 0.000000 0.000000 0.000000 0.000000 17.843235 1.047966 0.351830 66.220681 18.495966 6.653794 2.086825 43.044834 -0.002003 -4.603080 8.754185 -0.368496 0.095415 -0.238338 -0.000000 0.000000 0.000000 0.000000 0.000000 0.000000 0.000000 
-8.562257 16.328657 -2.470397 14.155972 75.672406 27.382226 -10.204561 -0.063757 2.755318 -4.669681 1.765278 -45.176533 -1.468821 1.321868 26.469551 1.082726 6.139390 6.956014 1.803500 0.000000 -32.602200 10.716414 -2.163411 -0.572408 4.955543 -0.926078 -14.381666 -1.389513 -3.511757 61.485567 -2.424174 -13.062049 -5.753424 -0.647799 -0.000000 -27.365000 -1.930246 -0.596028 -2.776508 -1.207449 -0.617548 -3.657861 -6.916741 -0.757992 -0.115317 10.222993 -3.852260 -6.205922 -4.155789 -0.340070 0.384855 0.000000 0.000000 0.000000 -5.165583 8.873782 2.286196 -64.393340 19.587241 7.594204 -3.957711 -11.547196 -0.002871 2.365000 4.154879 0.090973 -0.089506 -0.093963 -0.000000 0.000000 0.000000 0.000000 0.000000 0.000000 0.000000 18.166966 0.845089 0.384579 66.980763 17.612092 5.837638 2.114440 41.443264 -0.003264 -5.274355 8.866863 -0.426628 0.099736 -0.230691 -0.000000 0.000000 0.000000 0.000000 0.000000 0.000000 0.000000 
-8.376161 16.319089 -2.440738 15.431571 75.073713 28.539525 -10.161434 -0.033201 2.447953 -5.508552 2.468808 -45.194748 -1.507072 1.450893 28.287536 1.126820 6.411780 6.015195 1.760500 -0.000000 -33.028400 10.899217 -2.027828 -0.526635 4.847523 -0.751154 -16.213999 -1.564592 -3.656675 64.189121 -2.701975 -14.648544 -6.963998 -0.449600 -0.000000 -22.590900 -2.311477 -0.753936 -2.559546 -1.275890 -0.741054 -3.616692 -6.941241 -0.883440 -0.111390 10.266943 -3.880315 -6.262524 -4.207099 -0.342648 0.362700 0.000000 0.000000 0.000000 -5.074943 8.602959 2.307204 -64.210250 18.305576 7.829996 -3.920168 -11.408159 -0.001654 3.006120 4.002416 0.110404 -0.086639 -0.087651 -0.000000 0.000000 0.000000 0.000000 0.000000 0.000000 0.000000 18.444297 0.657783 0.422468 67.741864 16.739096 4.978276 2.137973 39.758762 -0.004537 -5.986366 8.956171 -0.488168 0.103819 -0.222626 -0.000000 0.000000 0.000000 0.000000 0.000000 0.000000 0.000000 
-8.196238 16.317134 -2.411697 16.164909 74.372401 29.163091 -10.112969 0.003064 2.132005 -6.219402 3.217390 -45.044845 -1.561680 1.558959 29.869816 1.162936 6.616630 4.753733 1.657200 0.000000 -33.859200 11.059459 -1.878809 -0.467027 4.857330 -0.445154 -18.044572 -1.699990 -3.788755 66.543226 -2.897963 -15.707335 -8.337197 -0.135400 -0.000001 -18.861000 -2.588578 -0.879824 -2.322496 -1.326122 -0.840079 -3.571154 -6.961933 -0.983272 -0.103947 10.282910 -3.889688 -6.309970 -4.256032 -0.345043 0.342600 0.000000 0.000000 0.000000 -5.021155 8.344498 2.322535 -64.035301 16.938679 7.951024 -3.873912 -11.348829 -0.000358 3.753207 3.808033 0.130236 -0.083105 -0.080956 -0.000000 0.000000 0.000000 0.000000 0.000000 0.000000 0.000000 18.677494 0.489331 0.466450 68.484265 15.870097 4.096434 2.159378 38.007196 -0.005697 -6.695898 9.007207 -0.548216 0.107387 -0.214034 -0.000000 0.000000 0.000000 0.000000 0.000000 0.000000 0.000000 
-8.021329 16.322478 -2.382966 16.487157 73.579458 29.378036 -10.063573 0.045438 1.813127 -6.813933 3.992324 -44.709918 -1.629869 1.643875 31.184385 1.196069 6.786588 3.293975 1.512900 -0.000000 -34.971300 11.195000 -1.721165 -0.397578 4.960039 -0.045663 -19.859924 -1.792374 -3.907799 68.531486 -3.007513 -16.211409 -9.870363 0.271200 -0.000000 -15.697700 -2.783281 -0.981210 -2.072088 -1.361743 -0.920563 -3.520270 -6.978586 -1.063346 -0.083985 10.283189 -3.894706 -6.354278 -4.302254 -0.347170 0.322960 0.000000 0.000000 0.000000 -4.987868 8.131186 2.329612 -63.864766 15.482462 7.992492 -3.820834 -11.380047 0.000905 4.572449 3.573236 0.148173 -0.079122 -0.074070 -0.000000 0.000000 0.000000 0.000000 0.000000 0.000000 0.000000 18.884629 0.322794 0.512712 69.182892 15.018440 3.239589 2.180794 36.208501 -0.006635 -7.361907 8.996639 -0.601072 0.110301 -0.204733 -0.000000 0.000000 0.000000 0.000000 0.000000 0.000000 0.000000 
-7.850246 16.334563 -2.354605 16.468771 72.711851 29.250217 -10.019256 0.093495 1.496639 -7.290436 4.790527 -44.188665 -1.706704 1.705455 32.215562 1.229399 6.943474 1.766920 1.346000 -0.000000 -36.242300 11.300769 -1.559180 -0.320036 5.156245 0.420545 -21.637706 -1.839178 -4.010813 70.131862 -3.034862 -16.188707 -11.510038 0.720400 0.000000 -12.908200 -2.894519 -1.063190 -1.814999 -1.382077 -0.987656 -3.467139 -6.991884 -1.129187 -0.059051 10.268964 -3.888618 -6.384984 -4.344744 -0.349097 0.307066 0.000000 0.000000 0.000000 -4.981144 7.930173 2.329136 -63.693454 14.019678 7.945296 -3.764497 -11.561058 0.002033 5.418268 3.307861 0.162005 -0.074970 -0.067351 -0.000000 0.000000 0.000000 0.000000 0.000000 0.000000 0.000000 19.061079 0.161976 0.562219 69.826723 14.165306 2.417929 2.205073 34.380390 -0.007241 -7.933916 8.913323 -0.640931 0.112345 -0.194749 -0.000000 0.000000 0.000000 0.000000 0.000000 0.000000 0.000000 
